<svg xmlns="http://www.w3.org/2000/svg" viewBox="0 0 360 270" role="img">
  <defs>
    <pattern id="bn-grid" width="14" height="14" patternUnits="userSpaceOnUse">
      <circle cx="1" cy="1" r="0.7" fill="#0B0D12" fill-opacity="0.08"></circle>
    </pattern>
    <linearGradient id="bn-shadow" x1="0" x2="0" y1="0" y2="1">
      <stop offset="0%" stop-color="#0B0D12" stop-opacity="0.10"></stop>
      <stop offset="100%" stop-color="#0B0D12" stop-opacity="0"></stop>
    </linearGradient>
  </defs>
  <rect width="360" height="270" fill="#F4F2EC"></rect>
  <rect width="360" height="270" fill="url(#bn-grid)"></rect>
  
  
  <g transform="translate(86, 62)">
    
    <g transform="rotate(-8 90 88)">
      <rect width="180" height="120" rx="8" fill="#ECE9DE" stroke="#D9D5C8" stroke-width="1.2"></rect>
      <rect x="14" y="14" width="42" height="22" rx="3" fill="#0B0D12"></rect>
      <text x="35" y="29" text-anchor="middle" font-family="IBM Plex Mono, monospace" font-size="11" font-weight="700" fill="#fff">MP4</text>
    </g>
    
    <g transform="rotate(4 90 88)">
      <rect width="180" height="120" rx="8" fill="#fff" stroke="#D9D5C8" stroke-width="1.2"></rect>
      <rect x="14" y="14" width="42" height="22" rx="3" fill="#0B0D12"></rect>
      <text x="35" y="29" text-anchor="middle" font-family="IBM Plex Mono, monospace" font-size="11" font-weight="700" fill="#fff">PNG</text>
      <rect x="14" y="52" width="148" height="6" rx="3" fill="#0B0D12" fill-opacity="0.7"></rect>
      <rect x="14" y="64" width="120" height="6" rx="3" fill="#0B0D12" fill-opacity="0.4"></rect>
      <rect x="14" y="84" width="100" height="4" rx="2" fill="#D9D5C8"></rect>
      <rect x="14" y="94" width="130" height="4" rx="2" fill="#D9D5C8"></rect>
    </g>
    
    <g transform="rotate(-2 90 88) translate(0, 6)">
      <rect width="180" height="120" rx="8" fill="#fff" stroke="#0B0D12" stroke-width="1.5"></rect>
      <rect x="14" y="14" width="42" height="22" rx="3" fill="#E4F25C"></rect>
      <text x="35" y="29" text-anchor="middle" font-family="IBM Plex Mono, monospace" font-size="11" font-weight="900" fill="#0B0D12">PDF</text>
      <text x="166" y="30" text-anchor="end" font-family="IBM Plex Mono, monospace" font-size="9" letter-spacing="0.1em" fill="#6B7080">2.4 MB</text>
      <rect x="14" y="52" width="148" height="8" rx="3" fill="#0B0D12"></rect>
      <rect x="14" y="66" width="120" height="8" rx="3" fill="#0B0D12" fill-opacity="0.7"></rect>
      <rect x="14" y="86" width="148" height="3" rx="1.5" fill="#D9D5C8"></rect>
      <rect x="14" y="93" width="140" height="3" rx="1.5" fill="#D9D5C8"></rect>
      <rect x="14" y="100" width="100" height="3" rx="1.5" fill="#D9D5C8"></rect>
    </g>
  </g>

  
  <g transform="translate(296, 158)">
    <circle r="34" fill="#1F3AE0"></circle>
    <g transform="translate(-12, -16)" stroke="#fff" stroke-width="3.5" fill="none" stroke-linecap="round" stroke-linejoin="round">
      <line x1="12" y1="2" x2="12" y2="22"></line>
      <polyline points="3,15 12,24 21,15"></polyline>
      <line x1="2" y1="30" x2="22" y2="30"></line>
    </g>
  </g>

  
  <text x="44" y="56" font-family="IBM Plex Mono, monospace" font-size="10" font-weight="700" letter-spacing="0.12em" fill="#1F3AE0">INSTANT</text>

</svg>