<svg xmlns="http://www.w3.org/2000/svg" viewBox="0 0 320 190" preserveAspectRatio="xMidYMid slice" role="img">
  <rect width="320" height="190" fill="#fff"></rect>
  
  <rect width="320" height="190" fill="#fff"></rect>
  
  <rect x="0" y="0" width="86" height="190" fill="#F4F2EC" stroke="#D9D5C8" stroke-width="0.5"></rect>
  <text x="10" y="20" font-family="ui-monospace,Menlo,monospace" font-size="8" fill="#1F3AE0" font-weight="800" letter-spacing="0.06em">/ API DOCS</text>
  
    <rect x="6" y="30" width="74" height="18" rx="3" fill="transparent" stroke="transparent" stroke-width="1"></rect>
    <text x="12" y="42" font-family="ui-monospace,Menlo,monospace" font-size="8" font-weight="700" fill="#0B0D12">GET  /users</text>
  
    <rect x="6" y="52" width="74" height="18" rx="3" fill="#fff" stroke="#1F3AE0" stroke-width="1"></rect>
    <text x="12" y="64" font-family="ui-monospace,Menlo,monospace" font-size="8" font-weight="900" fill="#1F3AE0">POST /users</text>
  
    <rect x="6" y="74" width="74" height="18" rx="3" fill="transparent" stroke="transparent" stroke-width="1"></rect>
    <text x="12" y="86" font-family="ui-monospace,Menlo,monospace" font-size="8" font-weight="700" fill="#0B0D12">GET  /orders</text>
  
    <rect x="6" y="96" width="74" height="18" rx="3" fill="transparent" stroke="transparent" stroke-width="1"></rect>
    <text x="12" y="108" font-family="ui-monospace,Menlo,monospace" font-size="8" font-weight="700" fill="#0B0D12">POST /orders</text>
  
    <rect x="6" y="118" width="74" height="18" rx="3" fill="transparent" stroke="transparent" stroke-width="1"></rect>
    <text x="12" y="130" font-family="ui-monospace,Menlo,monospace" font-size="8" font-weight="700" fill="#0B0D12">POST /reports</text>
  
  
  <g transform="translate(102, 20)">
    <rect width="44" height="16" rx="2" fill="#38B987"></rect>
    <text x="22" y="12" font-family="ui-monospace,Menlo,monospace" font-size="9" font-weight="900" fill="#fff" text-anchor="middle">POST</text>
    <text x="52" y="13" font-family="ui-monospace,Menlo,monospace" font-size="10" font-weight="800" fill="#0B0D12">/users</text>
    <text x="0" y="36" font-family="Pretendard,sans-serif" font-size="12" font-weight="900" fill="#0B0D12">사용자 생성</text>
    <rect x="0" y="44" width="200" height="3" rx="1.5" fill="#0B0D12" opacity="0.25"></rect>
    <rect x="0" y="52" width="160" height="3" rx="1.5" fill="#0B0D12" opacity="0.25"></rect>
    
    <rect x="0" y="68" width="208" height="78" rx="4" fill="#0B0D12"></rect>
    <text x="8" y="82" font-family="ui-monospace,Menlo,monospace" font-size="8" fill="#aab3c0">// REQUEST</text>
    <text x="8" y="96" font-family="ui-monospace,Menlo,monospace" font-size="9" fill="#9D43FF">{ </text>
    <text x="16" y="108" font-family="ui-monospace,Menlo,monospace" font-size="9" fill="#E4F25C">&#34;name&#34;: </text>
    <text x="62" y="108" font-family="ui-monospace,Menlo,monospace" font-size="9" fill="#3eecdc">&#34;홍길동&#34;</text>
    <text x="16" y="120" font-family="ui-monospace,Menlo,monospace" font-size="9" fill="#E4F25C">&#34;email&#34;: </text>
    <text x="64" y="120" font-family="ui-monospace,Menlo,monospace" font-size="9" fill="#3eecdc">&#34;a@b.com&#34;</text>
    <text x="8" y="132" font-family="ui-monospace,Menlo,monospace" font-size="9" fill="#9D43FF">}</text>
    <text x="200" y="140" text-anchor="end" font-family="ui-monospace,Menlo,monospace" font-size="7" fill="#aab3c0">201 Created</text>
  </g>
  
  <rect x="266" y="14" width="44" height="22" rx="3" fill="#1F3AE0"></rect>
  <text x="288" y="30" font-family="ui-monospace,Menlo,monospace" font-size="11" font-weight="900" fill="#fff" text-anchor="middle">PDF</text>

</svg>